<svg width="30" height="30" viewBox="0 0 30 30" fill="none" xmlns="http://www.w3.org/2000/svg">
<path d="M21.875 29.9994C21.7438 29.9994 21.6125 29.9581 21.5013 29.8744C21.185 29.6394 13.75 24.0369 13.75 19.5381C13.75 17.0356 15.785 14.9994 18.2875 14.9994C19.7125 14.9994 21.0288 15.6631 21.875 16.7531C22.72 15.6631 24.0363 14.9994 25.4625 14.9994C27.965 14.9994 30 17.0356 30 19.5381C30 24.0381 22.565 29.6394 22.2488 29.8756C22.1375 29.9581 22.0063 29.9994 21.875 29.9994ZM18.2875 16.2494C16.475 16.2494 15 17.7256 15 19.5381C15 22.5744 19.6538 26.8481 21.875 28.5869C24.095 26.8469 28.75 22.5706 28.75 19.5381C28.75 17.7256 27.275 16.2494 25.4625 16.2494C24.1513 16.2494 22.9688 17.0231 22.4488 18.2206C22.2513 18.6769 21.5 18.6769 21.3025 18.2206C20.7813 17.0231 19.5988 16.2494 18.2875 16.2494Z" fill="black"/>
<path d="M11.875 24.9994H6.25C4.87125 24.9994 3.75 23.8781 3.75 22.4994V13.7494H1.25C0.54875 13.7494 0 13.2006 0 12.4994C0 12.1481 0.1525 11.8006 0.4075 11.5719L12.6988 0.166875C12.9388 -0.055625 13.31 -0.055625 13.5487 0.166875L17.5 3.82938V1.87438C17.5 1.52938 17.78 1.24938 18.125 1.24938H21.875C22.22 1.24938 22.5 1.52938 22.5 1.87438V8.46438L25.85 11.5781C26.1025 11.8131 26.1175 12.2081 25.8825 12.4619C25.6475 12.7144 25.2525 12.7306 24.9988 12.4931L21.4487 9.19313C21.3225 9.07688 21.25 8.91063 21.25 8.73688V2.49938H18.75V5.26188C18.75 5.51063 18.6025 5.73563 18.375 5.83438C18.1462 5.93313 17.8813 5.88813 17.7 5.71938L13.125 1.47688L1.25 12.4944L4.375 12.4994C4.72 12.4994 5 12.7794 5 13.1244V22.4994C5 23.1894 5.56125 23.7494 6.25 23.7494H11.875C12.22 23.7494 12.5 24.0294 12.5 24.3744C12.5 24.7194 12.22 24.9994 11.875 24.9994Z" fill="black"/>
</svg>
